<svg xmlns="http://www.w3.org/2000/svg" viewBox="0 0 600 450"><defs><style>.cls-1{fill:none;}.cls-10,.cls-11,.cls-13,.cls-14,.cls-15,.cls-16,.cls-17,.cls-18,.cls-19,.cls-2,.cls-20,.cls-21,.cls-22,.cls-23,.cls-24,.cls-25,.cls-26,.cls-27,.cls-28,.cls-29,.cls-3,.cls-30,.cls-31,.cls-32,.cls-33,.cls-34,.cls-35,.cls-36,.cls-37,.cls-38,.cls-39,.cls-4,.cls-40,.cls-41,.cls-42,.cls-47,.cls-48,.cls-49,.cls-5,.cls-50,.cls-51,.cls-52,.cls-53,.cls-56,.cls-57,.cls-58,.cls-59{fill-rule:evenodd;}.cls-2,.cls-9{opacity:0.1;}.cls-3,.cls-8{fill:#72cbcc;}.cls-4{fill:#50a9aa;}.cls-5,.cls-7{fill:#369496;}.cls-30,.cls-6{fill:#1c7678;}.cls-10,.cls-12{fill:#5ec0d9;}.cls-11{fill:#3aa0ba;}.cls-13{fill:#c3987b;}.cls-14{fill:#8b6651;}.cls-15{fill:#755800;}.cls-16{fill:#dfbda5;}.cls-17{fill:#9e7700;}.cls-19{fill:#4f5253;}.cls-20{fill:#2b2b2b;}.cls-21{fill:#856400;}.cls-22{fill:#8f8f8f;}.cls-23{fill:#474747;}.cls-24{fill:#737373;}.cls-25{fill:#e8cab6;}.cls-26{fill:#fff;}.cls-27{fill:#f4d75d;}.cls-28{fill:#e5c828;}.cls-29{fill:#ccad14;}.cls-31{fill:#165e60;}.cls-32{fill:#73cfe5;}.cls-33{fill:#318fa6;}.cls-34,.cls-45{fill:#96637c;}.cls-35,.cls-43{fill:#734d60;}.cls-36,.cls-44{fill:#785d88;}.cls-37{fill:#594165;}.cls-38,.cls-46{fill:#9075a0;}.cls-39{fill:#b3889d;}.cls-40{fill:#858686;}.cls-41{fill:#6f7173;}.cls-42{fill:#d1a1b8;}.cls-47{fill:#738d57;}.cls-48{fill:#5a753d;}.cls-49{fill:#e8f078;}.cls-50,.cls-61{fill:#d9e354;}.cls-51{fill:#b8c745;}.cls-52{fill:#709d53;}.cls-53{fill:#446125;}.cls-54,.cls-59{fill:#35785d;}.cls-55,.cls-57{fill:#54b08b;}.cls-56{fill:#99c26d;}.cls-58,.cls-60{fill:#3f8f6f;}</style></defs><title>16Personalities community</title><g id="illustration_copy_2" data-name="illustration copy 2"><rect class="cls-1" width="600" height="450"/><g id="Warstwa_3_copy_5" data-name="Warstwa 3 copy 5"><polygon class="cls-2" points="38.77 349.51 191.24 368.91 332.08 349.51 191 336.49 38.77 349.51"/><polygon class="cls-3" points="146.25 343.58 123.96 339.23 101.52 343.58 124.14 347.41 146.25 343.58"/><polygon class="cls-4" points="146.25 343.58 146.25 350.74 124.18 354.71 124.14 347.41 146.25 343.58"/><polygon class="cls-5" points="124.18 354.71 101.5 350.74 101.52 343.58 124.14 347.41 124.18 354.71"/><rect class="cls-6" x="118.85" y="296.18" width="11.57" height="47.65"/><polygon class="cls-3" points="185.09 286.72 124.12 274.81 62.7 286.72 124.59 297.19 185.09 286.72"/><polygon class="cls-4" points="185.09 286.72 185.09 293.73 124.72 304.6 124.59 297.19 185.09 286.72"/><polygon class="cls-5" points="124.72 304.6 62.65 293.73 62.7 286.72 124.59 297.19 124.72 304.6"/><rect class="cls-7" x="180.27" y="120.04" width="5.06" height="232.63"/><rect class="cls-8" x="185.32" y="120.04" width="5.05" height="232.63"/><rect class="cls-9" x="180.27" y="120.04" width="10.11" height="41.56"/><polygon class="cls-10" points="185.26 17.99 131.41 111.83 185.26 126.07 185.26 17.99"/><polygon class="cls-11" points="185.26 17.99 131.41 111.83 61.04 93.22 185.26 17.99"/><polygon class="cls-12" points="0.03 77.08 61.04 93.22 185.26 17.99 0.03 77.08"/><polygon class="cls-11" points="185.26 17.99 239.1 111.83 185.26 126.07 185.26 17.99"/><polygon class="cls-10" points="185.26 17.99 239.1 111.83 309.48 93.22 185.26 17.99"/><polygon class="cls-11" points="185.26 17.99 309.48 93.22 370.48 77.08 185.26 17.99"/></g><g id="Warstwa_5_copy_5" data-name="Warstwa 5 copy 5"><polygon class="cls-13" points="407.68 219.53 423.89 261.55 414.56 260.56 408.38 253.44 406.67 243.98 407.68 219.53"/><polygon class="cls-13" points="372.03 350.66 371.51 382.9 378.77 396.59 374.68 397.98 360.31 396.91 364.18 382.34 353.02 352.67 355.93 325.88 372.03 350.66"/><polygon class="cls-14" points="353.02 352.67 371.91 358.03 372.03 350.66 362.2 339.36 353.02 352.67"/><polygon class="cls-2" points="325.73 397.06 392.64 387.05 456.33 394.9 395.77 407.47 325.73 397.06"/><polygon class="cls-15" points="378.86 400.24 360.31 400.59 360.31 396.91 370.61 395.44 378.77 396.59 378.86 400.24"/><polygon class="cls-16" points="353.09 209.91 328.02 262.84 340.6 259.18 349.01 253.08 359.28 237.35 356.68 219.81 353.09 209.91"/><polygon class="cls-15" points="431.78 394.5 406.19 394.51 405.84 387.54 418.33 390.14 431.78 394.5"/><polygon class="cls-13" points="407.14 334.49 409.81 346.71 413.46 377.46 432.21 390.93 428.93 392.11 424.56 392.57 405.84 387.54 406.33 379.13 384.86 337.45 407.14 334.49"/><polygon class="cls-14" points="424.56 392.57 432.21 390.93 435.67 389.51 431.78 394.5 424.56 392.57"/><polygon class="cls-17" points="422.12 383.68 419.14 391.11 422.6 392.04 425.06 385.8 422.12 383.68"/><polygon class="cls-14" points="360.31 396.91 372 393.97 378.77 396.59 360.31 396.91"/><polygon class="cls-17" points="374.04 387.68 362.35 389.24 361.55 392.23 375.41 390.26 374.04 387.68"/><polygon class="cls-14" points="394.39 355.94 409.81 346.71 399.46 343.65 390.66 348.71 394.39 355.94"/><polygon class="cls-18" points="430.73 137.02 434.63 149.12 417.76 154.73 414.11 134.25 430.73 137.02"/><polygon class="cls-19" points="415.65 113.61 436.11 129.68 417.76 154.73 408.47 121.97 415.65 113.61"/><polygon class="cls-20" points="436.11 129.68 416.86 137.24 409.3 146.81 417.76 154.73 436.11 129.68"/><polygon class="cls-20" points="304.84 159.64 296.35 168.03 292.83 180.54 332.23 208.67 363.22 198.58 347 159.57 304.84 159.64"/><polygon class="cls-18" points="332.23 208.67 365.8 203.49 362.13 185.03 332.23 208.67"/><polygon class="cls-20" points="337.26 196.39 332.23 208.67 357.87 188.4 350.99 169.17 346.48 178.46 337.26 196.39"/><polygon class="cls-21" points="417.3 145.67 429.75 162.47 418.63 171.68 418.24 164.18 421.17 161.7 417.88 157.16 415.45 153.63 417.3 145.67"/><polygon class="cls-16" points="349.52 172.53 361.93 193.32 376.91 224.63 395.25 214.75 394.37 195 419.74 193.39 415.65 113.61 365.95 147.84 349.52 172.53"/><polygon class="cls-13" points="373.05 163.19 377.25 195.89 394.37 195 393.53 204.28 395.25 217.89 386.5 221.03 376.91 224.62 357.46 187.64 356.67 181.61 349.52 172.53 361.82 150.85 373.05 163.19"/><polygon class="cls-13" points="403.87 137.16 402.24 139.82 403.1 156.22 410.13 143.01 413.11 138.35 403.87 137.16"/><polygon class="cls-13" points="396.5 140.19 391.82 137.52 380.4 141.55 392.22 151.78 397.24 162.23 396.5 140.19"/><polygon class="cls-14" points="415.92 118.75 373.53 166.04 363.9 169.06 364.17 159.32 391.82 137.52 415.65 113.61 415.92 118.75"/><polygon class="cls-14" points="366.36 177.52 357.46 187.64 349.52 172.53 355.95 157.76 369.02 162.63 366.36 177.52"/><polygon class="cls-22" points="292.83 180.54 292.59 165.61 304.84 159.64 314.49 164.52 292.83 180.54"/><polygon class="cls-23" points="304.84 159.64 292.83 180.54 337.26 196.39 357.14 157.71 304.84 159.64"/><polygon class="cls-20" points="333.05 139.04 291.43 146.17 330.04 184.95 345.05 169.9 365.59 161.83 371.64 158.45 333.05 139.04"/><polygon class="cls-24" points="328.99 148.48 291.42 146.17 331.46 138.24 332.2 142.49 328.99 148.48"/><polygon class="cls-19" points="380.44 100.6 340.36 101.23 328.99 148.48 356.11 125.44 380.44 100.6"/><polygon class="cls-23" points="422.73 105.37 373.05 163.19 365.55 162.15 352.91 163.19 340.85 158.72 320.95 155.96 368.38 130.12 422.73 105.37"/><polygon class="cls-22" points="422.73 105.37 393.66 88.31 320.95 155.96 422.73 105.37"/><polygon class="cls-20" points="404.38 131.08 412.9 137.96 403.87 137.16 404.38 131.08"/><polygon class="cls-25" points="396.5 140.19 402.24 139.82 403.4 161.9 397.24 162.23 396.5 140.19"/><polygon class="cls-14" points="397.24 162.23 400.64 165.8 403.4 161.9 397.24 162.23"/><polygon class="cls-21" points="380.07 171.75 400.67 167.37 414.56 171.01 401.43 189.34 380.07 171.75"/><polygon class="cls-23" points="386.18 172.86 410.06 172.39 403.26 182.09 397.69 182.25 386.18 172.86"/><polygon class="cls-26" points="391.94 177.55 406.66 177.24 410.06 172.39 386.18 172.86 391.94 177.55"/><polygon class="cls-21" points="365.78 162.18 366.36 177.52 346.48 178.46 349.52 172.53 360.29 171.73 360 165.86 365.78 162.18"/><polygon class="cls-14" points="394.37 195 371.69 196.18 395.25 217.89 394.37 195"/><polygon class="cls-19" points="304.84 159.64 292.83 180.54 314.74 169.58 304.84 159.64"/><polygon class="cls-18" points="340.85 158.72 330.04 184.95 349.52 172.53 365.78 162.18 352.77 160.37 340.85 158.72"/><polygon class="cls-16" points="353.09 209.91 407.68 219.53 390.72 231.84 353.09 209.91"/><polygon class="cls-17" points="353.09 209.91 362.42 251.27 382.07 237.54 390.53 228.45 353.09 209.91"/><polygon class="cls-17" points="390.53 228.45 407.68 219.53 408.38 253.44 398.82 240.35 390.53 228.45"/><polygon class="cls-15" points="362.42 251.27 363.08 265.82 399.98 275.86 408.38 253.44 390.53 228.45 362.42 251.27"/><polygon class="cls-27" points="363.08 265.82 399.98 275.86 398.12 281.72 401.28 285.11 405.22 313.1 375.41 303.91 347.18 288.74 363.08 265.82"/><polygon class="cls-28" points="347.18 288.74 405.22 313.1 380.4 334.49 352.91 352.66 347.18 288.74"/><polygon class="cls-29" points="405.22 313.1 409.81 346.71 352.91 352.66 405.22 313.1"/><polygon class="cls-29" points="360.41 269.68 390.53 288.74 401.27 285.11 399.98 275.86 386.18 267.62 360.41 269.68"/><polygon class="cls-14" points="380.07 272.92 390.53 284.37 399.98 275.86 394.69 274.42 380.07 272.92"/><circle cx="389.45" cy="149.41" r="3.36"/><circle cx="409.3" cy="148.6" r="3.36"/><polygon class="cls-13" points="349.01 253.08 371.64 262.84 374.05 267.62 371.69 272.06 328.02 262.84 349.01 253.08"/><polygon class="cls-16" points="371.64 262.84 391.83 256.36 394.69 274.42 371.69 272.06 371.64 262.84"/><polygon class="cls-16" points="423.89 261.55 399.98 275.86 397.32 270.4 400.32 265.39 408.38 253.44 423.89 261.55"/><polygon class="cls-13" points="400.32 265.39 391.83 256.35 394.69 274.42 399.98 275.86 400.32 265.39"/></g><g id="Warstwa_4_copy_5" data-name="Warstwa 4 copy 5"><polygon class="cls-2" points="443.79 387.52 525.64 379.13 600.08 393.41 528.95 403.62 443.79 387.52"/><polygon class="cls-16" points="534.27 109.41 504.6 113.53 484.43 99.44 467.06 196.77 484.56 200.16 508.36 222.67 524.43 219.44 544.73 200.16 556.1 174.97 562.29 159.44 548.99 149.99 537.37 166.34 530.73 160.45 557.87 124.92 534.27 109.41"/><polygon class="cls-13" points="534.27 109.41 514.54 206.13 524.43 219.44 546.25 200.75 555.47 176.36 541.85 169.12 537.37 166.34 533.42 161.06 556.47 123.88 534.27 109.41"/><polygon class="cls-14" points="547.73 167.33 550.84 159 558.83 162.17 547.73 167.33"/><polygon class="cls-14" points="555.47 176.36 544.39 170.46 549.68 191.67 555.47 176.36"/><polygon class="cls-14" points="491 157.86 495.2 163.27 500.67 159.73 491 157.86"/><polygon class="cls-13" points="517.99 138.94 509.73 140.46 500.67 159.73 506.17 132.49 517.99 138.94"/><polygon class="cls-13" points="496.43 130.7 492.68 149.46 489.33 134.43 483.45 130.33 496.43 130.7"/><polygon class="cls-14" points="519.9 207.2 524.43 219.44 506.8 234.19 488.46 200.75 519.9 207.2"/><polygon class="cls-23" points="497.16 127.05 484.24 126.15 483.45 130.33 496.43 130.7 497.16 127.05"/><polygon class="cls-23" points="506.92 128.76 519.48 134.96 517.99 138.94 506.17 132.49 506.92 128.76"/><polygon class="cls-14" points="516.06 172.49 477.09 165.01 491.98 178.54 516.06 172.49"/><polygon class="cls-26" points="505.51 172.85 484.56 168.72 492.59 176.72 505.51 172.85"/><polygon class="cls-23" points="529.17 87.16 554.85 104.38 543.65 110.26 534.27 109.41 503.53 116.04 513.75 100.71 529.17 87.16"/><polygon class="cls-24" points="554.85 104.38 576.68 120.39 562.68 124.44 554.46 124.48 534.27 109.41 554.85 104.38"/><polygon class="cls-20" points="576.68 120.39 562.29 159.44 548.45 153.07 541.85 169.12 530.56 163.19 554.46 124.48 576.68 120.39"/><polygon class="cls-22" points="503.53 116.04 529.17 87.16 484.43 99.44 503.53 116.04"/><polygon class="cls-30" points="546.25 200.75 566.17 211.31 562.29 294.82 560.28 299.88 561.75 306.53 500.67 308.64 506.8 234.19 546.25 200.75"/><polygon class="cls-4" points="546.25 200.75 541.85 235.15 506.8 234.19 546.25 200.75"/><polygon class="cls-5" points="484.56 200.16 506.8 234.19 500.74 307.79 461.13 305.41 454.49 271.6 467.06 196.77 484.56 200.16"/><polygon class="cls-31" points="501.86 294.13 561.75 306.53 562.29 294.82 523.61 288.34 501.86 294.13"/><polygon class="cls-13" points="524.6 270.64 514.12 264.65 512.62 270.64 524.6 270.64"/><polygon class="cls-3" points="506.8 234.19 475.14 218.3 488.46 200.75 506.8 234.19"/><polygon class="cls-3" points="566.17 211.31 578.25 296.13 558.06 275.86 547.73 259.28 566.17 211.31"/><polygon class="cls-32" points="493.38 271.31 491.94 257.26 498.59 257.27 505.05 255.47 516.43 260.31 514.54 270.64 493.38 271.31"/><polygon class="cls-10" points="517.82 259.28 510.19 258.1 505.05 255.47 503.66 271.31 514.54 270.64 517.82 259.28"/><polygon class="cls-16" points="524.6 270.64 530.99 281.62 526.53 291.25 501.86 294.13 501.86 282.38 503.8 270.64 524.6 270.64"/><polygon class="cls-13" points="503.8 270.64 493.38 271.31 494.25 285.74 501.86 294.13 503.8 270.64"/><polygon class="cls-4" points="578.25 296.13 523.43 291.61 524.6 270.64 547.73 259.28 578.25 296.13"/><polygon class="cls-11" points="517.82 259.28 505.05 255.47 491.94 257.26 504.54 261.56 517.82 259.28"/><polygon class="cls-11" points="524.43 324.18 504.1 387.05 488.46 377.68 479.54 368.3 460.02 308.64 524.43 324.18"/><polygon class="cls-33" points="561.75 306.53 535.51 323.29 508.36 334.49 460.02 308.64 561.75 306.53"/><polygon class="cls-10" points="561.75 306.53 561.18 372.78 548.48 380.24 534.77 384.11 508.36 334.49 561.75 306.53"/><polygon class="cls-31" points="561.18 372.78 570.97 393.68 534.7 394.17 534.77 384.11 561.18 372.78"/><polygon class="cls-31" points="504.1 387.06 462.97 387.06 479.54 368.31 504.1 387.06"/><rect class="cls-6" x="462.97" y="387.05" width="41.13" height="2.46"/><rect class="cls-6" x="534.7" y="393.58" width="36.27" height="2.46"/><polygon class="cls-4" points="454.49 271.6 427.95 251.27 455.97 213.82 465.18 228.45 454.49 271.6"/><polygon class="cls-13" points="455.97 213.82 465.18 194.1 479.54 213.82 465.18 228.45 455.97 213.82"/><polygon class="cls-25" points="465.18 194.1 479.54 187.64 488.46 200.75 479.54 213.82 465.18 194.1"/><polygon class="cls-25" points="496.43 130.7 506.17 132.49 500.67 159.73 491 157.86 496.43 130.7"/><polygon class="cls-30" points="500.74 307.79 454.49 271.6 460.02 308.64 500.74 307.79"/><circle cx="488.46" cy="137.92" r="3.36"/><circle cx="511.19" cy="143.17" r="3.36"/></g><g id="intp_copy_5" data-name="intp copy 5"><polygon class="cls-2" points="1.14 414.5 88.53 403.24 166.94 417 82.5 431.32 1.14 414.5"/><polygon class="cls-34" points="36.89 239.71 10.8 299.16 27.12 294.36 36.76 287.68 38 266.61 36.89 239.71"/><polygon class="cls-35" points="10.8 299.15 38 326.79 36.76 287.68 10.8 299.15"/><polygon class="cls-16" points="148.22 244.95 142 222.24 148.22 220.06 152.83 230.33 152.83 237.55 148.22 244.95"/><polygon class="cls-16" points="156.06 220.06 161.77 199.91 166.77 201.04 163.97 222.72 159.87 222.72 156.06 220.06"/><polygon class="cls-35" points="140.64 257.88 136.86 268.54 127.35 280.56 119.7 277.2 115.76 257.07 117.25 235.2 140.64 257.88"/><polygon class="cls-34" points="127.35 280.56 148.22 244.95 157.21 245.56 167.21 252.73 152.01 292.12 127.35 280.56"/><polygon class="cls-13" points="148.22 244.95 167.21 252.73 173.14 237.55 162.91 231.85 152.83 230.33 148.22 244.95"/><polygon class="cls-25" points="152.83 230.33 156.06 220.06 176.98 227.1 173.14 237.55 152.83 230.33"/><polygon class="cls-36" points="111.85 354.71 100.17 379.22 96.71 392.95 93.72 400.49 82.41 408.06 69 413.59 69.99 406.13 72.26 383.1 80.06 354.71 94.29 351.82 111.85 354.71"/><polygon class="cls-37" points="94.42 398.74 108.67 415.92 69.26 415.92 69 413.59 94.42 398.74"/><polygon class="cls-37" points="75.31 379.97 96.71 392.95 111.85 354.71 94.72 352.6 80.06 354.71 75.95 365.89 75.31 379.97"/><polygon class="cls-38" points="80.06 354.71 75.31 367.67 75.31 379.97 69 413.59 55.41 408.74 45.22 400.49 36.59 354.71 61.49 352.6 80.06 354.71"/><polygon class="cls-37" points="45.22 400.49 36.59 415.92 69.26 415.92 69 413.59 45.22 400.49"/><polygon class="cls-36" points="36.59 354.71 75.31 379.97 80.06 354.71 59.42 351.82 36.59 354.71"/><polygon class="cls-39" points="97.37 224.51 57.2 221.26 51.03 231.85 36.89 239.71 36.59 354.71 91.36 354.71 119.45 351.82 117.25 235.2 97.37 224.51"/><polygon class="cls-37" points="61.17 229.52 65.26 249.23 91.71 266.61 98.66 241.53 97.37 224.51 91.97 225.06 82.1 231.85 61.17 229.52"/><polygon class="cls-38" points="57.2 221.26 51.03 231.85 70.14 248.18 82.1 231.85 94.99 242.23 97.37 224.51 91.24 217.84 57.2 221.26"/><polygon class="cls-16" points="131.64 201.04 93.14 212.19 82.1 231.85 68.97 222.18 57.2 221.26 58.22 209.81 54.09 203.78 52.2 193.19 46.65 193.96 37.23 179.36 45.51 172.71 58.73 182.92 64.88 177.92 42.32 139.49 54.35 126.74 96.73 122.97 108.86 114.62 124.73 164.86 131.64 201.04"/><polygon class="cls-13" points="113.41 140.64 100.44 154.25 98.66 177.31 84.99 155.53 70.14 148.81 86.52 144.84 91.97 146.04 97.37 142.38 102.6 138.12 113.41 140.64"/><polygon class="cls-35" points="96.23 135.11 113.41 140.64 97.37 142.38 96.23 135.11"/><polygon class="cls-35" points="86.52 144.84 70.14 148.81 84.05 137.75 86.52 144.84"/><polygon class="cls-25" points="97.37 142.38 105.94 175.51 98.66 177.31 86.52 144.84 97.37 142.38"/><polygon class="cls-14" points="105.94 175.51 103.73 181.28 98.66 177.31 105.94 175.51"/><polygon class="cls-14" points="113.18 184.67 86.7 187.84 96.19 199.6 112.02 196.16 113.18 184.67"/><polygon class="cls-14" points="44.1 179.17 53.85 184.84 46.12 185.54 44.1 179.17"/><polygon class="cls-14" points="51.03 193.35 58.56 192.13 54.09 203.78 51.03 193.35"/><polygon class="cls-14" points="131.64 201.04 84.05 210.28 73.16 210.65 82.1 231.85 93.99 213.63 131.64 201.04"/><polygon class="cls-13" points="54.35 126.74 70.14 148.81 84.05 210.28 75.97 211.7 82.1 231.85 57.2 221.26 54.09 203.78 51.03 193.35 58.56 192.13 58.73 182.92 64.88 177.91 42.32 139.49 54.35 126.74"/><polygon class="cls-23" points="117.94 107.69 108.86 114.62 97.3 124.58 91.97 107.23 93.26 89.92 117.94 107.69"/><polygon class="cls-40" points="93.26 89.92 33.22 117.92 44.05 125.28 55.55 127.78 97.3 124.58 93.26 89.92"/><polygon class="cls-41" points="55.55 127.78 44.03 139.44 35.47 139.57 28.31 136.15 33.22 117.92 55.55 127.78"/><polygon class="cls-23" points="44.03 139.44 66.65 178.61 58.89 184.18 45.73 173.74 38.14 179.6 43.27 188.73 18.17 177.65 28.31 136.15 44.03 139.44"/><polygon class="cls-14" points="58.56 192.13 54.09 203.78 51.03 193.35 58.56 192.13"/><polygon class="cls-42" points="91.71 266.61 47.72 252.65 51.03 231.85 91.71 266.61"/><polygon class="cls-34" points="91.71 266.61 91.36 354.71 124.22 354.71 117.25 235.2 107.67 233.01 97.37 224.51 91.71 266.61"/><polygon class="cls-39" points="97.37 224.51 117.25 235.2 91.71 266.61 97.37 224.51"/><rect class="cls-43" x="98.67" y="278.74" width="7.45" height="7.45" transform="translate(-169.75 155.15) rotate(-45)"/><rect class="cls-43" x="98.67" y="304.91" width="7.45" height="7.45" transform="translate(-188.23 162.76) rotate(-44.99)"/><rect class="cls-43" x="98.67" y="331.08" width="7.45" height="7.45" transform="translate(-206.76 170.48) rotate(-45)"/><rect class="cls-44" x="54.86" y="257.37" width="5.64" height="22.9" transform="translate(-84.02 33.21) rotate(-18.91)"/><rect class="cls-45" x="49.64" y="277.2" width="29.81" height="4.81"/><polygon class="cls-26" points="92.21 189.95 110.71 186.78 93.45 193.25 92.21 189.95"/><polygon class="cls-23" points="110.71 186.78 112.04 193.24 94.33 196.29 93.45 193.25 110.71 186.78"/><circle cx="85.05" cy="161.6" r="3.36"/><circle cx="108.15" cy="156.12" r="3.36"/><rect class="cls-44" x="69" y="415.92" width="39.67" height="4.06"/><rect class="cls-46" x="36.59" y="415.92" width="32.67" height="4.06"/></g><g id="Warstwa_6_copy_5" data-name="Warstwa 6 copy 5"><polygon class="cls-47" points="235.28 224.2 227.32 241.69 215.58 259.18 222.46 225.06 235.28 224.2"/><polygon class="cls-2" points="167.88 409.65 238.17 406.19 320.57 419 253.02 423.72 167.88 409.65"/><polygon class="cls-16" points="218.78 410.87 220.27 399.07 219.65 393.82 210.65 391.57 192.69 410.14 206.29 410.87 218.78 410.87"/><polygon class="cls-47" points="269.8 291.31 244.22 295.42 226.02 295.42 215.58 259.18 240.69 270.47 269.8 291.31"/><polygon class="cls-48" points="235.28 224.2 215.58 259.18 228.47 267.9 239.37 272.9 269.8 291.31 287.23 250.11 235.28 224.2"/><polygon class="cls-16" points="210.58 119.83 215.58 119.06 218.7 115.92 233.87 110.07 273.1 115.92 239.56 231.79 233.29 217.85 224.33 204.81 210.56 198.33 194.14 192.79 206.17 161.61 214.54 127.94 213.88 123.19 210.58 119.83"/><polygon class="cls-16" points="224.33 204.82 194.14 192.8 214.54 127.94 222.45 123.92 230.57 120.02 242.92 115.22 252.19 129.13 254.12 128.21 257.9 136.05 239.98 210.41 224.33 204.82"/><polygon class="cls-13" points="257.78 136.11 239.98 210.41 242.53 213.16 249.35 214.04 254.07 208.18 257.45 199.64 259.47 177.25 257.78 136.11"/><polygon class="cls-14" points="249.35 214.04 239.56 231.79 224.33 204.82 239.98 210.41 249.35 214.04"/><polygon class="cls-49" points="214.49 127.95 218.7 115.92 248.11 101.11 242.92 115.22 230.57 120.02 222.45 123.92 214.49 127.95"/><polygon class="cls-50" points="248.11 101.11 290.01 114.99 301.11 144.38 305.02 152.5 293.25 148.41 281.47 144.41 269.8 140.32 257.78 136.11 252.19 129.13 242.92 115.22 248.11 101.11"/><polygon class="cls-51" points="257.78 136.11 269.45 140.2 281.47 144.41 293.25 148.41 305.02 152.5 308.44 209.91 261.69 144.23 257.78 136.11"/><polygon class="cls-13" points="230.06 144.65 223.89 161.32 212.87 141.51 230.06 144.65"/><polygon class="cls-13" points="234.1 145.41 248.74 156.26 236.35 157.85 225.01 171.16 234.1 145.41"/><polygon class="cls-14" points="220.72 169.9 221.81 174.34 225.01 171.16 220.72 169.9"/><polygon class="cls-47" points="234.1 145.41 247.85 151.47 248.74 156.26 234.1 145.41"/><polygon class="cls-47" points="230.06 144.65 214.27 138.92 212.87 141.51 230.06 144.65"/><polygon class="cls-25" points="234.1 145.41 225.01 171.16 220.72 169.9 230.06 144.65 234.1 145.41"/><polygon class="cls-49" points="261.69 144.23 273.1 256.35 257.95 254.74 257.45 199.65 257.9 136.05 261.69 144.23"/><polygon class="cls-50" points="263.7 164.05 301.12 243.98 323.84 232.12 308.44 209.91 261.68 144.23 263.7 164.05"/><polygon class="cls-50" points="257.45 199.65 239.56 231.79 229.58 250.24 257.95 254.74 257.45 199.65"/><polygon class="cls-51" points="263.7 164.05 301.12 243.98 273.1 256.35 269.89 224.82 264.46 200.74 263.7 164.05"/><polygon class="cls-52" points="206.75 177 219.12 185.58 235.28 186.08 217.86 190.37 206.75 177"/><polygon class="cls-53" points="206.75 177 211.82 178.79 218.87 180.02 223.41 181.54 228.72 184.57 235.28 186.08 219.12 185.58 206.75 177"/><rect class="cls-54" x="212.09" y="117.43" width="9.01" height="9.01" transform="translate(-31.46 106.04) rotate(-25.71)"/><rect class="cls-55" x="223.96" y="121.52" width="9.01" height="9.01" transform="translate(-32.06 111.6) rotate(-25.71)"/><rect class="cls-54" x="235.74" y="125.52" width="9.01" height="9.01" transform="translate(-32.62 117.11) rotate(-25.71)"/><rect class="cls-55" x="247.51" y="129.71" width="9.01" height="9.01" transform="translate(-33.28 122.63) rotate(-25.71)"/><rect class="cls-54" x="259.28" y="133.71" width="9.01" height="9.01" transform="translate(-33.84 128.12) rotate(-25.71)"/><rect class="cls-55" x="270.96" y="137.8" width="9.01" height="9.01" transform="translate(-34.47 133.59) rotate(-25.71)"/><rect class="cls-54" x="282.73" y="141.8" width="9.01" height="9.01" transform="translate(-35.03 139.09) rotate(-25.71)"/><rect class="cls-55" x="294.5" y="145.89" width="9.01" height="9.01" transform="translate(-35.64 144.61) rotate(-25.71)"/><polygon class="cls-48" points="257.73 159.92 263.7 164.04 265.16 178.34 257.64 173.3 257.73 159.92"/><polygon class="cls-56" points="257.64 173.3 265.16 178.34 266.22 188.73 257.56 183.9 257.64 173.3"/><polygon class="cls-48" points="257.56 183.9 266.22 188.73 267.39 200.29 257.48 194.76 257.56 183.9"/><polygon class="cls-56" points="257.48 194.76 267.39 200.29 268.68 212.97 257.51 206.63 257.48 194.76"/><polygon class="cls-48" points="257.51 206.63 268.68 212.97 269.89 224.82 257.61 217.99 257.51 206.63"/><polygon class="cls-13" points="186.36 410.87 194.97 402.76 206.29 410.87 186.36 410.87"/><polygon class="cls-14" points="210.65 391.57 220.27 399.07 221.01 393.21 216.69 391.57 210.65 391.57"/><polygon class="cls-16" points="279.67 420.07 277.3 402.31 267 401.18 263.04 406.37 254.34 419.35 262.32 417.82 279.67 420.07"/><polygon class="cls-13" points="254.34 419.35 264 413.1 279.67 420.07 254.34 419.35"/><polygon class="cls-14" points="266.87 400.66 263.04 406.37 277.3 402.31 271.02 400.66 266.87 400.66"/><polygon class="cls-56" points="289.06 274.09 266.21 277.94 269.8 291.31 305.02 291.82 296.37 276.56 289.06 274.09"/><polygon class="cls-47" points="301.12 243.98 305.02 291.82 273.1 256.36 301.12 243.98"/><polygon class="cls-16" points="266.22 277.94 247.69 277.94 255.42 292.66 269.8 291.31 266.22 277.94"/><polygon class="cls-57" points="269.8 291.31 272.32 297.77 278.55 303.9 283.11 310.46 252.95 323.86 220.28 331.76 224.15 307.23 226.02 301.69 226.02 295.42 269.8 291.31"/><polygon class="cls-58" points="220.28 331.76 283.11 310.46 279.18 368.19 246 353.33 220.28 331.76"/><polygon class="cls-59" points="279.18 368.19 244.91 382.73 210.65 391.57 220.28 331.76 279.18 368.19"/><polygon class="cls-58" points="279.18 368.19 277.3 402.31 210.65 391.57 279.18 368.19"/><polygon class="cls-14" points="254.63 280.05 262.99 291.95 255.42 292.66 249.61 281.4 254.63 280.05"/><polygon class="cls-2" points="278.55 303.91 263.05 298.96 258.22 313.71 255.2 314.52 234.83 301.69 224.15 307.23 226.02 295.42 269.8 291.32 278.55 303.91"/><polygon class="cls-56" points="234.82 270.31 234.11 276.79 228.47 284.46 206.29 275.51 215.58 259.18 234.82 270.31"/><polygon class="cls-13" points="234.57 270.16 239.37 272.9 241.81 280.25 239.74 289.49 228.47 284.46 234.57 270.16"/><polygon class="cls-14" points="236.84 288.2 245.32 291.46 246.34 280.05 239.92 274.95 236.84 288.2"/><rect class="cls-60" x="240.3" y="269.07" width="12.87" height="12.87" transform="translate(-63.18 73.68) rotate(-15.08)"/><polygon class="cls-47" points="251.3 299.28 255.2 314.52 258.22 313.71 253.91 298.54 251.3 299.28"/><polygon class="cls-51" points="245.06 269.29 239.56 251.82 257.95 254.74 251.28 267.62 245.06 269.29"/><polygon class="cls-51" points="252.01 270.34 266.36 258.37 276.18 271.58 253.26 274.98 252.01 270.34"/><polygon class="cls-51" points="253.96 277.56 274.24 276.79 262.99 291.95 251.73 280.83 254.63 280.05 253.96 277.56"/><polygon class="cls-51" points="249.61 281.4 257.8 297.28 242.88 301.51 245.18 282.6 249.61 281.4"/><polygon class="cls-51" points="242.2 283.4 234.83 301.69 226.02 295.42 241.24 279.86 242.2 283.4"/><polygon class="cls-51" points="240.69 277.8 219.8 289.19 213.96 278.42 239.92 274.95 240.69 277.8"/><polygon class="cls-51" points="239.37 272.9 217.96 268.15 226.02 255.47 243.08 269.82 238.85 270.97 239.37 272.9"/><rect class="cls-61" x="242.18" y="270.96" width="9.1" height="9.1" transform="translate(-115.12 351.96) rotate(-60.08)"/><circle cx="216.93" cy="152.5" r="3.36"/><circle cx="239.53" cy="160.68" r="3.36"/></g></g></svg>