<svg xmlns="http://www.w3.org/2000/svg" viewBox="0 0 150 150"><defs><style>.a{fill:#50a9aa;}.a,.aa,.b,.c,.d,.e,.f,.g,.h,.i,.j,.k,.l,.m,.n,.o,.p,.q,.r,.s,.t,.u,.v,.w,.x,.y,.z{fill-rule:evenodd;}.b{fill:#96637c;}.c{fill:#734d60;}.d{fill:#a27e6e;}.e{fill:#7f5d4e;}.f{fill:#593e35;}.g{fill:#aa8d80;}.h{fill:#b3889d;}.i{fill:#543042;}.j{fill:#fff;}.k{fill:#2b2b2b;}.l{fill:#efd3c2;}.m{fill:#d0af96;}.n{fill:#f7e6dc;}.o{fill:#a688ba;}.p{fill:#9075a0;}.q{fill:#785d88;}.r{fill:#a9846c;}.s{fill:#835940;}.t{fill:#c09c84;}.u{fill:#35785d;}.v{fill:#3f8f6f;}.w{fill:#54b08b;}.x{fill:#a77e62;}.y{fill:#c9ad9b;}.z{fill:#dddddc;}.aa{fill:#474747;}</style></defs><title>languages</title><polygon class="a" points="84.2 66.06 85.74 61.16 92.2 55.2 94.69 52.45 102.38 52.76 98.34 45.86 98.58 38.75 100.17 35.88 103.54 36 100.84 32.67 101.23 27.54 100.27 24.89 102.38 14.79 81.75 8.49 64.87 0 53.46 15.56 43.8 22.56 47.74 30.03 47.54 34.14 45.43 38.75 40.34 42.78 47.34 47.67 53.18 55.2 49.67 48.36 51.88 49.91 54.33 47.93 57.44 49.91 60.25 53.56 60.83 62.71 65.64 59.33 71.31 60.2 80.73 61.16 84.2 66.06"/><polygon class="b" points="51.88 28.93 40.34 42.78 55.55 39.75 51.88 28.93"/><polygon class="c" points="49.49 40.15 51.88 46.68 51.88 49.91 53.18 55.2 40.34 42.78 49.49 40.15"/><polygon class="d" points="51.88 28.93 60.83 62.71 102.38 52.76 94.59 24.03 58.52 14.79 51.88 28.93"/><polygon class="e" points="84.83 28.39 80.73 33.65 79.87 42.11 77.13 41.34 75.06 43.36 69.97 36.7 64.43 33.14 71.72 31.17 77.13 30.03 84.83 28.39"/><polygon class="f" points="95.87 28.77 58.52 19.99 51.88 28.93 54.81 20.32 58.52 14.79 71.31 18.63 95.87 28.77"/><polygon class="f" points="92.2 55.2 84.2 66.06 71.31 60.2 92.2 55.2"/><polygon class="g" points="77.13 30.03 79.87 42.11 75.06 43.36 71.72 31.17 77.13 30.03"/><polygon class="f" points="79.87 42.11 78.05 44.33 75.06 43.36 79.87 42.11"/><polygon class="b" points="58.52 14.79 95.87 28.77 102.38 14.79 61.22 8.49 58.52 14.79"/><polygon class="h" points="102.38 14.79 64.87 0 61.22 8.49 102.38 14.79"/><polygon class="c" points="64.87 0 58.52 14.79 51.88 28.93 43.8 22.56 64.87 0"/><polygon class="e" points="54.48 38.75 49.49 40.15 51.88 49.91 57.44 49.91 54.48 38.75"/><polygon class="e" points="95.87 28.77 101.23 27.54 103.54 36 98.58 38.75 95.87 28.77"/><polygon class="i" points="43.8 22.56 49.49 40.15 55.55 42.78 51.88 28.93 43.8 22.56"/><polygon class="i" points="102.38 14.79 101.23 27.54 97.06 33.14 95.87 28.77 102.38 14.79"/><polygon class="i" points="84.83 28.39 77.13 30.03 76.63 27.48 84.83 28.39"/><polygon class="i" points="71 28.75 71.72 31.17 64.43 33.14 71 28.75"/><polygon class="i" points="70.16 50 79.49 49.42 87.37 45.86 78.64 46.83 70.16 50"/><polygon class="j" points="87.37 45.86 82.83 51.12 77.47 52.45 70.16 50 79.49 49.42 87.37 45.86"/><polygon class="i" points="87.37 45.86 84.58 52.6 76.7 54.58 70.16 50 77.47 52.45 82.83 51.12 87.37 45.86"/><path class="k" d="M70.79,36.63a2.12,2.12,0,1,1-2.12-2.12A2.11,2.11,0,0,1,70.79,36.63Z"/><path class="k" d="M84.46,33.65a2.13,2.13,0,1,1-2.13-2.13A2.12,2.12,0,0,1,84.46,33.65Z"/><polygon class="l" points="93.7 65.08 129.59 75.05 120.08 111.83 83.83 101.92 93.7 65.08"/><polygon class="m" points="116.97 82.75 111.64 84.83 106.71 90.77 104.06 88.82 100.65 89.32 100.18 81.94 96.3 76.96 103.27 78.88 109.44 80.65 116.97 82.75"/><polygon class="n" points="109.44 80.65 106.71 90.77 100.65 89.32 103.27 78.88 109.44 80.65"/><polygon class="o" points="93.7 65.08 116.7 56.67 109.6 69.5 93.7 65.08"/><polygon class="p" points="116.7 56.67 144.77 72.98 129.59 75.05 109.6 69.5 116.7 56.67"/><polygon class="m" points="129.59 75.05 132.33 91.78 136.67 89.72 142.16 95.16 115.55 123.9 120.08 111.83 129.59 75.05"/><polygon class="q" points="129.59 75.05 144.77 72.98 142.16 95.16 136.67 89.72 132.33 91.78 129.59 75.05"/><polygon class="r" points="101.22 106.68 115.55 123.9 120.08 111.83 101.22 106.68"/><polygon class="r" points="135.72 102.12 131.31 99.47 131.31 106.68 135.72 102.12"/><polygon class="p" points="116.97 82.75 110.2 78.07 109.44 80.65 116.97 82.75"/><polygon class="p" points="104.06 76.37 103.27 78.88 96.3 76.96 104.06 76.37"/><polygon class="r" points="106.71 90.77 103.32 92.5 100.65 89.32 106.71 90.77"/><path class="k" d="M114.39,85.63a2,2,0,1,1-2-1.95A2,2,0,0,1,114.39,85.63Z"/><path class="k" d="M100.79,82.31a2,2,0,1,1-2-2A2,2,0,0,1,100.79,82.31Z"/><polygon class="r" points="94.28 92.36 113.81 97.28 106.74 101.89 97.46 99.45 94.28 92.36"/><polygon class="j" points="109.75 97.65 97.46 94.42 98.54 98.43 106.25 100.42 109.75 97.65"/><polygon class="r" points="139.46 95.4 135.69 93.17 133.46 98.14 139.46 95.4"/><polygon class="s" points="57.55 123.68 45.04 140.87 41.33 135.79 38.93 129.86 48.24 125.94 57.55 123.68"/><polygon class="t" points="61.65 82.49 74.09 118.19 38.93 129.86 36.57 126.26 36.1 121.79 29.79 108.5 26.12 93.31 61.65 82.49"/><polygon class="u" points="61.65 82.49 51.94 90.91 51.94 82.49 53.83 75.25 61.65 75.25 61.65 82.49"/><polygon class="v" points="53.83 75.25 38.27 83.32 26.12 93.31 51.94 90.91 53.83 75.25"/><polygon class="w" points="53.83 75.25 26.12 93.31 19.22 99.15 6.38 106.17 24 77.76 53.83 75.25"/><polygon class="v" points="26.12 93.31 34.72 117.85 28.26 119.4 21.86 112.71 13.09 117.39 6.38 106.17 26.12 93.31"/><polygon class="u" points="34.72 117.85 21.86 112.71 6.38 106.17 14.36 119.4 18.5 116.34 21.86 112.71 24.87 117.95 27.94 120.45 31.16 120.45 34.72 117.85"/><polygon class="x" points="21.86 112.71 27.94 120.45 34.72 117.85 38.93 129.86 45.04 140.87 14.36 119.4 21.86 112.71"/><polygon class="s" points="22.78 125.29 27.8 122.19 27.2 128.38 22.78 125.29"/><polygon class="s" points="25.29 121.02 21.4 115.94 17.77 118.84 25.29 121.02"/><polygon class="x" points="38.43 103.67 47.22 106.17 52.47 110.45 57.55 108.83 57.55 103.02 60.37 96.07 38.43 103.67"/><polygon class="y" points="48.72 100.11 52.47 110.45 57.55 108.83 53.83 98.34 48.72 100.11"/><polygon class="s" points="57.55 108.83 56.02 111.82 52.47 110.45 57.55 108.83"/><polygon class="v" points="37.46 104.36 61.02 96.07 60.37 93.31 37.05 103.26 37.46 104.36"/><polygon class="s" points="45.93 116.74 64.49 110.45 62.79 117.23 52.06 120.94 45.93 116.74"/><polygon class="j" points="50.29 116.9 61.66 112.95 61.18 116.18 52.79 118.92 50.29 116.9"/><path class="k" d="M48.35,105.93a2,2,0,1,1-2-2A2,2,0,0,1,48.35,105.93Z"/><path class="k" d="M60.94,101.57a2,2,0,1,1-2-2A2,2,0,0,1,60.94,101.57Z"/><polygon class="z" points="150.04 43.47 147.17 22.72 118.81 8.95 117.95 26.7 106.68 31.55 117.59 34.2 116.75 51.69 150.04 43.47"/><polygon class="z" points="31 61.09 41.58 57.79 35.2 32.1 0 41.14 8.08 68.27 23.62 63.4 34.19 70.76 31 61.09"/><polygon class="z" points="100.2 124.05 99.06 112.52 93.04 122.44 77.67 118.96 80.36 150 106.47 146.61 111.83 126.68 100.2 124.05"/><path class="aa" d="M17,50.1a1.75,1.75,0,1,1-1.74-1.75A1.74,1.74,0,0,1,17,50.1Z"/><path class="aa" d="M23.23,50.1a1.75,1.75,0,1,1-1.75-1.75A1.74,1.74,0,0,1,23.23,50.1Z"/><path class="aa" d="M29.43,50.1a1.75,1.75,0,1,1-1.75-1.75A1.74,1.74,0,0,1,29.43,50.1Z"/><path class="aa" d="M128.17,32.21a1.75,1.75,0,1,1-1.75-1.75A1.74,1.74,0,0,1,128.17,32.21Z"/><path class="aa" d="M134.37,32.21a1.75,1.75,0,1,1-1.75-1.75A1.74,1.74,0,0,1,134.37,32.21Z"/><path class="aa" d="M140.57,32.21a1.75,1.75,0,1,1-1.74-1.75A1.74,1.74,0,0,1,140.57,32.21Z"/><path class="aa" d="M89.53,134.84a1.75,1.75,0,1,1-1.75-1.74A1.75,1.75,0,0,1,89.53,134.84Z"/><path class="aa" d="M95.73,134.84A1.75,1.75,0,1,1,94,133.1,1.75,1.75,0,0,1,95.73,134.84Z"/><path class="aa" d="M101.93,134.84a1.75,1.75,0,1,1-1.74-1.74A1.74,1.74,0,0,1,101.93,134.84Z"/></svg>