<svg xmlns="http://www.w3.org/2000/svg" viewBox="0 0 600 450"><defs><style>.cls-1,.cls-10,.cls-24{fill:none;}.cls-11,.cls-12,.cls-13,.cls-17,.cls-18,.cls-19,.cls-2,.cls-20,.cls-21,.cls-25,.cls-26,.cls-27,.cls-28,.cls-29,.cls-3,.cls-30,.cls-33,.cls-34,.cls-35,.cls-36,.cls-37,.cls-39,.cls-4,.cls-40,.cls-41,.cls-42,.cls-43,.cls-44,.cls-7,.cls-8,.cls-9{fill-rule:evenodd;}.cls-2{opacity:0.1;}.cls-3{fill:#54b08b;}.cls-4{fill:#3f8f6f;}.cls-5,.cls-7{fill:#369496;}.cls-6,.cls-8{fill:#50a9aa;}.cls-16,.cls-9{fill:#8ce0dc;}.cls-10{stroke:#8ce0dc;}.cls-10,.cls-24{stroke-miterlimit:10;stroke-width:1.07px;}.cls-11,.cls-14{fill:#318fa6;}.cls-12,.cls-15{fill:#5ec0d9;}.cls-13{fill:#27788c;}.cls-17{fill:#72c9a6;}.cls-18{fill:#c4c4c4;}.cls-19,.cls-31{fill:#1c7678;}.cls-20{fill:#ececeb;}.cls-21{fill:#72cbcc;}.cls-22{fill:#9075a0;}.cls-23,.cls-27{fill:#96637c;}.cls-24{stroke:#8f8f8f;}.cls-25{fill:#734d60;}.cls-26,.cls-32{fill:#543042;}.cls-28{fill:#d1a1b8;}.cls-29{fill:#cececd;}.cls-30{fill:#73cfe5;}.cls-33{fill:#2b2b2b;}.cls-34,.cls-38{fill:#8b6651;}.cls-35{fill:#dfbda5;}.cls-36{fill:#c3987b;}.cls-37{fill:#e8cab6;}.cls-39{fill:#dddddc;}.cls-40{fill:#a3a3a3;}.cls-41{fill:#737373;}.cls-42{fill:#474747;}.cls-43{fill:#3aa0ba;}.cls-44{fill:#4f5253;}</style></defs><title>Personality types</title><g id="illustration_copy" data-name="illustration copy"><rect class="cls-1" width="600" height="450"/><g id="shadow_copy_4" data-name="shadow copy 4"><polygon class="cls-2" points="128.04 398.16 229.72 379.54 475.9 371.15 599.83 402.76 327.91 433.83 138.75 424.64 128.04 398.16"/></g><g id="maps_copy_4" data-name="maps copy 4"><polygon class="cls-2" points="0 371.15 100.48 391.73 182.68 362.69 78.75 350.79 0 371.15"/><polygon class="cls-3" points="115.42 246.32 193.72 272.19 101.25 383.2 107.68 286.49 115.42 246.32"/><polygon class="cls-4" points="10.18 273.26 115.42 246.32 101.25 383.2 10.18 273.26"/><polygon class="cls-5" points="106.25 187.77 141.61 186.32 82.58 327.7 106.25 187.77"/><polygon class="cls-5" points="138.4 194.82 147.01 193.23 101.95 322.13 92.02 327.7 112.68 259.18 138.4 194.82"/><polygon class="cls-6" points="82.58 327.7 106.25 187.77 138.4 194.82 92.02 327.7 82.58 327.7"/><polygon class="cls-7" points="0 182.91 42.86 161.76 63.75 359.9 60.31 351.92 0 182.91"/><polygon class="cls-8" points="66.75 354.01 61.07 174.63 0 182.91 57.86 359.9 66.75 354.01"/><polygon class="cls-9" points="61.07 174.63 19.82 193.83 57.86 359.9 71.79 359.9 63.75 263.47 62.24 194.82 61.07 174.63"/><polygon class="cls-8" points="62.24 194.82 38.04 204.6 71.79 359.9 62.24 194.82"/><line class="cls-10" x1="42.94" y1="227.15" x2="63.75" y2="219.32"/><line class="cls-10" x1="48.32" y1="251.93" x2="65.16" y2="245.25"/><line class="cls-10" x1="53.86" y1="277.4" x2="66.75" y2="272.87"/><polygon class="cls-11" points="97.28 149.45 59.78 157.33 64.23 316.93 95.87 207.77 97.28 149.45"/><polygon class="cls-9" points="119.32 168 97.28 149.45 73.02 322.86 119.32 168"/><polygon class="cls-12" points="69.23 160.8 101.47 160.54 92.94 208.02 69.23 160.8"/><polygon class="cls-9" points="86.58 174.99 69.23 160.8 64.23 316.93 73.02 322.86 86.58 174.99"/><polygon class="cls-11" points="86.58 174.99 119.32 168 79.42 322.31 73.02 322.86 86.58 174.99"/><polygon class="cls-13" points="116.34 179.51 95.98 184.15 84.87 301.22 116.34 179.51"/><line class="cls-10" x1="93.43" y1="211.03" x2="109.06" y2="207.66"/><line class="cls-10" x1="91.3" y1="233.46" x2="103.14" y2="231.25"/><line class="cls-10" x1="89.31" y1="254.48" x2="97.38" y2="252.87"/><line class="cls-10" x1="87.29" y1="273.76" x2="91.86" y2="272.79"/><polygon class="cls-14" points="154.49 174.2 183.79 177.7 111.33 352.92 154.49 174.2"/><polygon class="cls-15" points="189.68 196.97 154.49 174.2 103.95 349.71 110.16 350.79 189.68 196.97"/><polygon class="cls-16" points="97.54 346.91 131.08 230.79 138.83 191.61 142 179.69 189.68 196.97 111.33 352.92 97.54 346.91"/><polygon class="cls-15" points="138.83 191.61 171.47 203.06 101.49 348.63 97.54 346.91 138.83 191.61"/><line class="cls-10" x1="160.2" y1="226.5" x2="132.03" y2="217.18"/><line class="cls-10" x1="149.58" y1="248.59" x2="125.66" y2="241.16"/><line class="cls-10" x1="139.23" y1="270.12" x2="119.58" y2="264.01"/><line class="cls-10" x1="129.41" y1="291.11" x2="113.65" y2="286.32"/><polygon class="cls-3" points="10.18 273.26 110.89 294.17 110.89 334.72 101.25 383.2 58.83 368.09 30 350.79 10.18 273.26"/><polygon class="cls-17" points="30 350.79 24.11 374.36 101.25 383.2 30 350.79"/><polygon class="cls-4" points="110.89 294.17 193.72 272.19 156.97 370.62 101.25 383.2 110.89 294.17"/></g><g id="stand_map_copy_4" data-name="stand+map copy 4"><g id="stand_copy_4" data-name="stand copy 4"><polygon class="cls-2" points="319.9 349.27 433.57 334.72 558.76 346.51 417.81 365.69 319.9 349.27"/><polygon class="cls-18" points="557.69 64.82 566.8 65.89 553.05 261.54 544.83 264.01 548.05 156.05 557.69 64.82"/><polygon class="cls-19" points="558.76 51.43 567.87 54.64 566.8 65.89 557.69 64.82 555.81 58.66 558.76 51.43"/><polygon class="cls-8" points="426.1 16.5 401.54 362.94 419.54 365.08 436 175.55 444.94 17.57 426.1 16.5"/><polygon class="cls-19" points="444.94 17.57 454.58 21.86 431.01 360.79 419.54 365.08 444.94 17.57"/><polygon class="cls-20" points="316.9 53.57 437.83 54.16 557.63 65.51 544.83 264.01 301.93 247.51 316.9 53.57"/><polygon class="cls-7" points="316.9 53.57 317.42 41.68 558.76 51.43 557.69 64.82 316.9 53.57"/><polygon class="cls-21" points="455.94 55.07 455.05 71.14 409.51 68.82 410.22 53.11 455.94 55.07"/></g><g id="map_copy_4" data-name="map copy 4"><polygon class="cls-3" points="335.52 89.97 342.39 87.89 352.94 90.56 363.5 90.9 360.73 87.26 364.11 85.32 376.13 88.17 372.32 92.2 376.01 92.39 382.79 88.3 393.75 93.21 391.99 96.5 386.22 95.46 386.46 92.94 376.73 96.98 383.4 103.04 385.7 97.44 393.33 99.11 397.6 106.53 389.26 110.22 382.69 118.66 374.04 118.21 373.34 125.58 378.61 123.84 385.46 135.29 374.52 127.33 370.39 127.22 361.42 114.59 358.65 112.97 357.98 103.62 347.7 95.79 336.93 99.46 337.13 95.56 335.05 94.81 335.52 89.97"/><polygon class="cls-3" points="383.45 132.56 387.27 130.32 398.2 135.65 399.48 139.63 408.87 144.25 403.46 154.65 393.46 161.75 386.78 172.19 388.61 175.78 383.63 173.83 384.28 165.4 387.01 151.57 383.39 147.9 381.64 138.92 383.66 134.47 383.45 132.56"/><polygon class="cls-3" points="435.18 116.2 434.35 118.06 440.1 121.43 442.62 119.76 448.58 120.72 448.69 129.07 452.38 135.5 456.87 134.57 453.79 140.97 449.36 144.76 449.94 151.78 442.16 163.12 436.6 164.31 433.36 151.34 434.66 148.66 432.39 137.43 428.33 136.16 423.06 137.9 418.23 130.98 420.8 122.23 425.1 116.95 435.18 116.2"/><polygon class="cls-3" points="425.44 116.44 429.02 114.72 431.07 111.86 434.25 111.82 437.66 115.38 439.38 114.94 440.72 117.55 443.79 115.49 449.17 117.78 447.84 121.09 452.49 133.29 462.3 127.88 458.92 125.58 455.35 123.18 456.79 121.88 461.47 125.4 468.93 128.43 471.22 137.44 473.6 136.29 477.69 128.78 480.74 129.26 486.91 138.68 489.93 135.66 488.85 129.89 494.82 129.04 498.21 124.88 496.43 118.44 499.44 117.53 500.71 121.51 504.26 116.3 510.05 110.89 507.98 107.93 510.56 105.2 516.22 106.03 519.73 103.78 522.64 104.67 517.16 108.3 518.26 111.64 523.23 105.55 531.46 104.07 531.57 99.84 523.71 98.38 510.68 94.63 503.04 97.09 500.72 94.96 493.96 94.61 490.61 92 476.11 94.1 470.13 93.26 467.66 95.89 453.62 97.48 450.23 99.53 449.49 97.48 452.71 96.48 452.4 94.46 443.48 92.94 432.37 99.13 433.78 102.59 438.6 103.47 439.51 100.14 443.34 97.69 442.37 102.08 440 104.92 434.01 104.29 430.07 106.73 426.6 108.46 427.82 111.27 423.48 111.47 425.44 116.44"/><polygon class="cls-3" points="425.7 101.22 429.33 100.67 428.67 103.06 430.11 106 428.58 106.87 425.96 106.41 427.12 104.46 425.7 101.22"/><polygon class="cls-3" points="423.34 103.84 425.06 103.3 425.97 104.3 423.94 106.52 423.34 103.84"/><polygon class="cls-3" points="451.56 153.34 455.74 150.17 453.83 158.54 451.38 158.73 451.56 153.34"/><polygon class="cls-3" points="403.18 98.88 405.34 96.14 410.09 94.27 414.34 93.86 414.2 90.46 416.42 90.47 417.02 87.12 420.47 83.91 419.25 82.79 415.61 83.76 414.22 79.99 402.67 80.24 398.82 83.1 394.4 82.66 390.74 87.87 397.23 89.26 398.2 95.03 403.18 98.88"/><polygon class="cls-3" points="492.17 167.83 492.06 163.91 490.03 160.1 495.59 156.9 495.81 154.69 503.24 152.22 504.8 152.83 504.14 155.33 507.03 156.75 507.15 152.32 509.1 153.58 510.95 158.54 512.76 160.44 514.28 165.7 510.2 170.99 507.03 170.93 503.96 166.86 497.24 165.87 496.73 167.64 492.17 167.83"/><polygon class="cls-3" points="489.13 142.81 494.28 139.38 494.68 143.94 492.22 146.46 490.63 146.49 489.13 142.81"/><polygon class="cls-3" points="503.41 145.03 510.23 148.03 511.86 151.29 510.79 151.55 509.16 150.31 507.32 151.16 503.81 147.38 501.6 145.15 503.41 145.03"/><polygon class="cls-3" points="483.68 137.77 486.99 141.22 486.38 142.88 487.86 144.86 487.61 147.71 489.65 149.08 487.3 149.49 484.62 146.28 483.74 142.74 482.39 140.24 483.89 139.89 483.68 137.77"/><polygon class="cls-3" points="509.61 114.37 511.92 115.69 509.22 117.21 508.8 120.76 503.19 123.32 503.08 120.94 506.73 119.46 507.37 116.16 509.61 114.37"/><polygon class="cls-3" points="415.55 96.87 417.6 98.64 420.54 96.89 419.89 95.67 416.07 95.94 415.55 96.87"/></g><g id="chart_copy_4" data-name="chart copy 4"><rect class="cls-22" x="460.3" y="208.52" width="51.15" height="8.72" transform="translate(235.3 680.43) rotate(-85.47)"/><rect class="cls-23" x="443.52" y="203.43" width="59.29" height="8.72" transform="translate(228.66 663.07) rotate(-85.47)"/><rect class="cls-14" x="480.83" y="217.67" width="34.88" height="8.72" transform="translate(237.53 701.18) rotate(-85.46)"/><rect class="cls-14" x="467.15" y="88.82" width="10.72" height="10.71" transform="translate(43.88 314.22) rotate(-38.45)"/><rect class="cls-14" x="395.37" y="149.9" width="10.71" height="10.72" transform="translate(-9.63 282.88) rotate(-38.45)"/><rect class="cls-14" x="487.51" y="159.54" width="10.71" height="10.72" transform="translate(4.35 342.27) rotate(-38.45)"/><rect class="cls-22" x="429.12" y="131.68" width="10.71" height="10.72" transform="translate(9.01 299.92) rotate(-38.45)"/><rect class="cls-22" x="491.26" y="123.11" width="10.71" height="10.72" transform="translate(27.82 336.71) rotate(-38.45)"/><rect class="cls-23" x="382.51" y="113.47" width="10.71" height="10.72" transform="translate(10.21 266.93) rotate(-38.45)"/><rect class="cls-23" x="352.51" y="104.89" width="10.71" height="10.72" transform="translate(9.04 246.42) rotate(-38.45)"/><rect class="cls-23" x="444.65" y="108.11" width="10.71" height="10.72" transform="translate(27.01 304.41) rotate(-38.45)"/><line class="cls-24" x1="404.94" y1="176.87" x2="462.2" y2="182.52"/><line class="cls-24" x1="404.4" y1="182.32" x2="443.48" y2="186.18"/><line class="cls-24" x1="403.86" y1="187.77" x2="452.03" y2="192.53"/><line class="cls-24" x1="403.32" y1="193.23" x2="435.13" y2="196.37"/><line class="cls-24" x1="402.78" y1="198.68" x2="426.41" y2="201.02"/><line class="cls-24" x1="402.24" y1="204.14" x2="441.33" y2="208"/><line class="cls-24" x1="401.71" y1="209.59" x2="422.61" y2="211.65"/><line class="cls-24" x1="331.42" y1="136" x2="366.01" y2="138.79"/><line class="cls-24" x1="330.97" y1="141.46" x2="353.73" y2="143.29"/><line class="cls-24" x1="330.53" y1="146.92" x2="342.37" y2="147.87"/><line class="cls-24" x1="330.09" y1="152.38" x2="354.67" y2="154.37"/><line class="cls-24" x1="329.65" y1="157.84" x2="346.95" y2="159.24"/><line class="cls-24" x1="329.21" y1="163.31" x2="358.35" y2="165.66"/><line class="cls-24" x1="328.77" y1="168.77" x2="340.61" y2="169.72"/><line class="cls-24" x1="328.33" y1="174.23" x2="344.72" y2="175.55"/><line class="cls-24" x1="327.89" y1="179.69" x2="348.83" y2="181.38"/><line class="cls-24" x1="327.45" y1="185.16" x2="336.55" y2="185.89"/><line class="cls-24" x1="327.01" y1="190.62" x2="351.59" y2="192.6"/><line class="cls-24" x1="326.57" y1="196.08" x2="341.13" y2="197.26"/></g></g><g id="table_kopia_copy_4" data-name="table kopia copy 4"><polygon class="cls-25" points="277.87 329.03 281.96 385.87 301.04 391.73 304.57 329.38 277.87 329.03"/><polygon class="cls-25" points="380.9 344.77 378.05 417.76 355.19 409.69 362.94 344.77 380.9 344.77"/><polygon class="cls-26" points="301.04 391.73 317.77 390.15 324.2 337.6 301.04 330.1 301.04 391.73"/><polygon class="cls-27" points="378.05 347.56 378.05 417.76 403.4 415.62 393.95 346.32 385.85 344.77 378.05 347.56"/><polygon class="cls-25" points="553.05 403.92 538.05 400.31 523.75 336.16 545.19 329.03 553.05 403.92"/><polygon class="cls-27" points="580.9 331.69 571.62 401.69 553.05 403.92 542.13 334.72 561.52 325.75 580.9 331.69"/><polygon class="cls-26" points="451.6 336.45 451.6 381.69 431.17 383.2 428.4 334.72 451.6 336.45"/><polygon class="cls-25" points="431.17 383.2 415.9 377.85 419.12 339.24 431.17 336.2 431.17 383.2"/><polygon class="cls-28" points="277.87 303.93 378.05 334.72 584.48 299.79 488.05 286.49 277.87 303.93"/><polygon class="cls-27" points="378.05 329.38 374.83 338.2 378.05 347.56 580.9 331.69 584.48 299.79 378.05 329.38"/><polygon class="cls-25" points="277.87 303.93 277.87 329.03 378.05 347.56 378.05 329.38 277.87 303.93"/><polygon class="cls-2" points="318.82 300.53 368.04 305.99 327.91 316.64 277.87 303.93 318.82 300.53"/></g><g id="books_copy_4" data-name="books copy 4"><polygon class="cls-13" points="555.55 279.99 452.69 283.28 455.9 304.82 555.55 295.8 555.55 279.99"/><polygon class="cls-29" points="455.9 286.49 440.27 279.87 419.47 276.06 419.47 292.18 455.9 304.82 455.9 286.49"/><polygon class="cls-30" points="555.55 279.99 515.37 269.66 419.47 276.06 455.9 286.49 555.55 279.99"/><polygon class="cls-31" points="455.9 282.52 454.3 274.18 455.9 266.45 544.83 264.01 544.83 277.24 455.9 282.52"/><polygon class="cls-29" points="455.9 266.45 419.47 260.25 419.47 273.11 455.9 282.52 455.9 266.45"/><polygon class="cls-21" points="419.47 260.25 500.37 256.5 544.83 264.01 455.9 268.59 419.47 260.25"/><polygon class="cls-13" points="405.54 243.72 505.19 246.32 505.19 261.33 407.88 261.87 405.54 243.72"/><polygon class="cls-29" points="407.69 243.72 396.97 239.44 396.97 253.86 407.88 261.87 407.69 243.72"/><polygon class="cls-30" points="396.97 239.44 489.65 238.49 505.19 246.32 407.69 245.86 396.97 239.44"/><polygon class="cls-31" points="419.47 228.65 515.9 226.5 513.76 243.13 419.47 243.13 419.47 228.65"/><polygon class="cls-29" points="513.76 226.5 523.75 219.88 523.75 233.13 513.76 243.13 513.76 226.5"/><polygon class="cls-21" points="523.75 219.88 434.48 219.88 419.47 228.65 513.76 228.65 523.75 219.88"/></g><g id="chair_copy_4" data-name="chair copy 4"><polygon class="cls-25" points="224.47 407.55 212.94 401.21 212.95 380.26 225.04 379.54 224.47 407.55"/><rect class="cls-32" x="158.04" y="370.62" width="16.4" height="39.07"/><rect class="cls-32" x="224.47" y="368.47" width="23.08" height="39.07"/><polygon class="cls-25" points="254.29 425.71 238.02 417.22 242.3 389.14 257.07 384.27 254.29 425.71"/><polygon class="cls-27" points="123.22 209.9 224.92 207.75 243.39 350.79 155.16 350.79 123.22 209.9"/><polygon class="cls-28" points="155.16 350.79 179.27 370.62 266.4 370.62 243.39 350.79 155.16 350.79"/><polygon class="cls-28" points="123.22 209.9 101.25 201.69 211.18 192.87 224.92 207.75 123.22 209.9"/><polygon class="cls-25" points="123.22 209.9 155.16 350.79 184.63 370.62 188.3 398.16 184.63 425.71 173.36 418.29 173.36 382.06 158.04 372.48 158.04 409.69 142.5 399.54 147.3 352.76 101.25 201.69 123.22 209.9"/><polygon class="cls-27" points="184.63 370.62 184.63 425.71 205.34 425.71 201.05 388.83 254.98 389.24 254.29 425.71 269.37 425.71 269.62 370.62 184.63 370.62"/></g><g id="istj_copy_4" data-name="istj copy 4"><polygon class="cls-33" points="211.18 370.62 248.65 370.62 250.75 342.76 211.18 370.62"/><polygon class="cls-34" points="338.1 294.17 346.01 279.99 336.44 285.55 338.1 294.17"/><polygon class="cls-21" points="277.87 303.93 283.04 284.44 291.18 270.74 324.2 279.66 317.42 305.99 277.87 303.93"/><polygon class="cls-8" points="257.07 233.34 291.18 270.74 277.87 303.93 263.56 291.12 259.1 264.01 257.07 233.34"/><polygon class="cls-35" points="300 103.61 269.62 99.92 250.75 101.57 238.26 92.02 218.02 85.27 219.59 97.39 226.83 104.69 217.38 115.8 214.4 129.24 213.98 146.69 218.62 162.32 214.59 161.52 210.26 163.55 210.31 155.64 207.49 149.37 198.73 149.33 191.47 152.63 192.86 164.45 197.27 176.06 195.33 182.73 197.48 192.87 199.4 197.76 197.58 201.69 207.81 214.11 225.48 229.05 232.99 225.21 238.01 219.18 242.3 206.4 283.14 211.05 291.66 164.48 296.31 156.49 298.11 140.35 295.98 134.87 300 103.61"/><polygon class="cls-36" points="234.39 93.42 233.2 126.56 229.72 156.51 225.5 204.11 242.3 206.4 238.78 212.04 238.01 219.18 225.48 229.05 197.58 201.69 197.27 176.06 210.32 175.01 210.26 163.55 213.99 161.37 218.62 162.32 215.59 152.14 214.4 129.24 218.66 117.06 226.83 104.69 221.26 96.35 218.02 85.27 228.82 89.47 234.39 93.42"/><polygon class="cls-34" points="197.27 176.06 210.32 175.01 197.48 192.87 195.48 182.5 197.27 176.06"/><polygon class="cls-34" points="242.3 206.4 218.57 203.16 225.48 229.05 233.64 225.24 238.01 219.18 242.3 206.4"/><polygon class="cls-34" points="237.43 150.45 242.75 138.33 255.82 139.49 257.31 154.26 229.72 156.51 255.71 162.36 259.1 168.36 264.17 130.77 239.54 134.75 234.6 141.75 237.43 150.45"/><polygon class="cls-34" points="279.44 155.05 283.43 144.21 295.54 144.4 298.09 147.04 292.83 161.03 270.69 161.74 270.11 166.03 291.66 164.48 299.08 153.65 299.79 138.27 277.84 137.17 274.08 153.76 279.44 155.05"/><polygon class="cls-34" points="259.1 168.36 263.49 174.47 269.59 169.9 259.1 168.36"/><polygon class="cls-37" points="263.34 138.13 273.7 139.31 269.59 169.9 259.1 168.36 263.34 138.13"/><polygon class="cls-13" points="263.34 138.13 262.29 134.04 264.17 130.77 274.62 132.07 276.39 136.1 273.7 139.31 263.34 138.13"/><path class="cls-11" d="M264.17,130.77l-31-4.21-2.5,11,.24,8.53-1.22,10.45,30.55,3.54,3.07-21.92.83-7.36Zm-24.63,4,16.6,2.28-2,15.44-16.69-2Z"/><path class="cls-11" d="M274.62,132.07l30.23,4-4,29.65-30.12-3.94,3-22.44.92-7.23Zm6.79,8.49-2,14.49,14.32,2.06,2.07-14.74Z"/><rect class="cls-38" x="257.5" y="170.94" width="2.38" height="30.54" transform="translate(41.16 419.18) rotate(-82.71)"/><polygon class="cls-34" points="205.82 165.96 203.71 156.05 196.82 156.66 205.82 165.96"/><polygon class="cls-39" points="300 103.61 248.26 79.05 247.97 92.07 250.75 101.57 300 103.61"/><polygon class="cls-18" points="218.02 85.27 204.48 86.89 193.87 109.04 208.47 109.67 226.83 104.69 218.02 85.27"/><polygon class="cls-39" points="193.87 109.04 175.27 146.72 196.51 139.09 214.4 129.24 226.83 104.69 193.87 109.04"/><polygon class="cls-40" points="214.4 129.24 218.62 162.32 210.26 163.55 207.38 149.4 191.47 152.63 197.27 176.06 197.48 192.87 175.27 146.72 214.4 129.24"/><polygon class="cls-18" points="250.75 101.57 248.26 79.05 218.02 85.27 250.75 101.57"/><polygon class="cls-13" points="233.2 126.56 184.63 150.65 193.31 160.06 191.47 152.63 207.52 149.5 230.94 146.06 233.2 126.56"/><polygon class="cls-34" points="216.82 148.16 230.94 146.06 230.32 151.36 217.27 151.72 216.82 148.16"/><polygon class="cls-41" points="207.4 149.53 216.82 148.16 217.27 151.72 207.9 151.95 207.4 149.53"/><polygon class="cls-39" points="197.58 201.69 191.02 216.16 216.17 239.41 227.22 246.19 238.52 238.48 246.51 226.96 238.01 219.18 227.49 228.65 197.58 201.69"/><polygon class="cls-18" points="246.51 226.96 258.61 234.26 243.28 252.34 226.94 265.82 199.62 244.3 177.43 222.03 191.02 216.16 227.22 246.19 246.51 226.96"/><polygon class="cls-19" points="257.07 233.34 226.94 265.82 177.43 222.03 177.65 305.99 245.74 301.79 263.56 291.12 257.07 233.34"/><polygon class="cls-42" points="227.49 228.65 217.54 238.15 227.22 246.19 236.83 236.74 227.49 228.65"/><polygon class="cls-41" points="227.22 246.19 216.42 256.52 226.94 265.82 237.95 254.86 227.22 246.19"/><polygon class="cls-7" points="263.56 291.12 223.16 300.05 180.9 331.69 268.93 337.13 263.56 291.12"/><polygon class="cls-29" points="274.13 198.24 277.51 191.8 340.15 209.9 377.69 185.77 385.85 189.33 341.23 223.94 274.13 198.24"/><polygon class="cls-43" points="265.82 196.32 342.69 214.01 324.2 294.17 246.98 276.62 265.82 196.32"/><polygon class="cls-13" points="342.69 214.01 393.95 184.7 375.54 260.79 324.2 294.17 342.69 214.01"/><polygon class="cls-35" points="318.76 294.17 321.22 277.25 338.25 267.58 338.4 285.76 329.19 296.43 318.76 294.17"/><polygon class="cls-36" points="318.76 294.17 317.42 305.99 338.1 294.17 338.4 285.76 318.76 294.17"/><polygon class="cls-42" points="236.83 338.47 264.17 334.72 284.95 353.47 285.74 402.76 275.9 408.12 262.3 409.69 236.83 338.47"/><polygon class="cls-13" points="285.74 402.76 301.63 425.71 262.94 425.71 262.3 409.69 285.74 402.76"/><polygon class="cls-44" points="243.39 311.15 245.74 331.69 243.39 356.83 211.18 370.62 184.63 370.62 176.62 331.69 243.39 311.15"/><polygon class="cls-41" points="243.39 311.15 294.83 347.56 291.18 356.28 284.95 365.26 243.39 356.83 243.39 311.15"/><polygon class="cls-11" points="284.95 365.26 302.64 374.36 324.2 338.2 294.83 347.56 284.95 365.26"/><polygon class="cls-19" points="176.62 331.69 219.24 318.77 174.44 305.99 176.62 331.69"/><polygon class="cls-21" points="177.43 222.03 184.63 282.52 175.27 292.94 158.04 304.02 155.16 232.26 177.43 222.03"/><polygon class="cls-7" points="184.63 282.52 218.57 295.25 217.27 304.46 212.15 317.06 158.04 304.02 184.63 282.52"/><polygon class="cls-39" points="218.57 295.25 225.21 297.67 225.27 308.68 219.24 318.77 212.15 317.06 218.57 295.25"/><polygon class="cls-35" points="225.21 297.67 244.29 288.94 246.98 304.02 243.39 311.15 219.24 318.77 225.21 297.67"/><polygon class="cls-34" points="244.29 288.94 243.39 311.15 254.16 318.77 254.98 308.22 244.29 288.94"/><circle cx="248.56" cy="147.85" r="2.89"/><circle cx="287.63" cy="152.83" r="2.89"/></g></g></svg>