<svg xmlns="http://www.w3.org/2000/svg" width="150" height="150" viewBox="0 0 150 150"><g fill-rule="evenodd" clip-rule="evenodd"><path fill="#8CE0DC" d="M12.228 11.683L36.335-.076l39.604 20.233-20.878 17.22-26.906-8.61z"/><path fill="#72CBCC" d="M29.877 26.615l23.828 7.801-18.429 17.207z"/><path fill="#50A9AA" d="M36.335 45.556l-6.458-18.941-17.649-14.932-5.166 29.164L31.6 72.677l4.735-13.345z"/><path fill="#1C7678" d="M78.522 52.443l-2.583-32.286-39.604 25.399L31.6 72.677l8.271-2.629 10.669-5.539z"/><path fill="#709D53" d="M52.136 117.093l7.876 33.072-30.135-15.282-17.649-25.837z"/><path fill="#99C26D" d="M50.542 119.601l3.163-10.555 8.89-8.389 6.536 6.798 6.889 5.688-2.622 4.361-13.386 32.661z"/><path fill="#BFDB8E" d="M62.595 100.657l-24.538-7.913-25.829 16.302 38.314 10.555z"/><path fill="#734D60" d="M110.81 51.623l27.551 24.067-27.551 21.956-21.525-34.065z"/><path fill="#96637C" d="M110.81 54.596l-4.306-8.179 2.153-12.001 36.591 20.18-6.887 21.094z"/><path fill="#D1A1B8" d="M108.657 34.416l-9.685 14.582-6.808 8.208-2.879 6.375 21.525-8.985z"/><path fill="#A3A3A3" d="M61.733 39.119l18.621 10.339 12.275 9.089-3.344 5.034-26.51-11.958z"/><path fill="#DDDDDC" d="M61.733 39.119l7.319-1.742 29.92 11.621-6.343 9.549zM100.047 67.941L69.13 107.455l5.88 6.117 19.333-21.98 19.481-24.511z"/><path fill="#A3A3A3" d="M113.824 67.081l2.581 15.498-43.007 34.925 1.612-3.932zM39.827 69.129v16.328l1.965 24.457 7.026-5.811 1.724-39.594z"/><path fill="#DDDDDC" d="M31.6 72.677l4.52 31.426 5.672 5.811-1.965-40.785z"/></g></svg>