<svg xmlns="http://www.w3.org/2000/svg" width="150" height="150" viewBox="0 0 150 150"><path fill="#86E0EF" d="M.615 87.066l16.115 6.565 15.944-1.765-9.601-5.829z"/><path fill="#318FA6" d="M16.73 93.631l15.944-1.765-4.715 37.932-8.313.987z"/><path fill="#27788C" d="M18.177 112.066l12.031-1.575-2.249 19.307-8.313.987z"/><path fill="#73CFE5" d="M16.73 93.631l2.916 37.154-9.516-1.03L.615 87.066z"/><path fill="#5EC0D9" d="M18.177 112.066l-12.881-3.999 4.834 21.688 9.516 1.03z"/><path fill="#BFDB8E" d="M28.713 29.848l22.391 6.111 16.998-1.353-18.012-7.627z"/><path fill="#99C26D" d="M51.104 35.959l-3.364 95.682-10.78-.685-8.247-101.108z"/><path fill="#5A753D" d="M68.102 34.606l-12.284 95.891-8.078 1.144 3.364-95.682z"/><path fill="#709D53" d="M30.208 48.479l20.118 9.592-.844 24.024-17.092-6.427zM34.768 104.082l13.81 3.729-.838 23.83-10.78-.685z"/><path fill="#446125" d="M50.326 58.071l14.802-1.115-2.967 22.715-12.679 2.424zM48.578 107.811l10.507-2.819-3.267 25.505-8.078 1.144z"/><path fill="#ECECEB" d="M73.205 49.95L57.29 63.754l20.443 3.532 19.029-10.97z"/><path fill="#C4C4C4" d="M57.29 63.754l10.812 68.572 8.924.827.707-65.867z"/><path fill="#8F8F8F" d="M96.762 56.316l-9.868 75.325-9.868 1.512.707-65.867z"/><path fill="#A3A3A3" d="M59.869 80.109l17.67 5.226-.243 22.732-13.504-3.075z"/><path fill="#737373" d="M77.539 85.335l15.712-2.221-2.907 22.196-13.048 2.757z"/><path fill="#D1A1B8" d="M98.527 20.472l21.903 14.863 29.39-.573-22.972-12.558z"/><path fill="#B3889D" d="M98.527 20.472l-1.574 112.153 15.933.732 8.612-100.484z"/><path fill="#96637C" d="M98.039 55.302l21.047 5.718-2.273 26.517-19.147-5.614zM97.299 108.067l17.546 2.424-1.959 22.866-15.933-.732z"/><path fill="#96637C" d="M121.498 32.873l-8.612 100.484 7.136-.825 29.798-97.77z"/><path fill="#734D60" d="M119.086 61.02l23.766-3.395-8.68 28.485-17.359 1.427zM114.845 110.491h11.894l-6.717 22.041-7.136.825z"/></svg>